<svg width="153" height="58" viewBox="0 0 153 58" fill="none" xmlns="http://www.w3.org/2000/svg">
<path d="M59.6367 16.6445V17.6875C59.6367 19 59.6367 20.4824 59.25 22.75L58.3125 22.6562C58.7344 20.5234 58.7344 18.9648 58.7344 17.6875V17.4062H52.4531V16.6445H59.6367ZM51.4219 24.4141V23.6523H60.9141V24.4141H51.4219ZM66.0469 16.668V20.3125H63.0352V22.6797C64.2363 22.6738 65.3672 22.627 66.7148 22.3984L66.7969 23.1484C65.3145 23.4062 64.1367 23.4531 62.8242 23.4531H62.1445V19.5508H65.1562V17.4414H62.1211V16.668H66.0469ZM67.4414 25.4102V15.7656H68.2852V19.6562H69.8203V15.5312H70.6992V25.9492H69.8203V20.418H68.2852V25.4102H67.4414ZM75.832 18.332C75.8262 20.2188 77.0391 22.1172 78.5508 22.8086L78 23.5586C76.8164 22.9492 75.8379 21.707 75.375 20.2246C74.9121 21.7832 73.9336 23.1191 72.75 23.7461L72.1523 23.0078C73.6816 22.2578 74.8887 20.2539 74.8945 18.332V16.4336H75.832V18.332ZM77.4141 19.8438V19.0938H79.8867V15.5312H80.8008V25.9727H79.8867V19.8438H77.4141ZM84.2461 24.2148L83.332 27.4023H82.4648L83.1094 24.2148H84.2461ZM93.3633 16.2109C95.5781 16.2227 97.1719 17.3008 97.1719 18.9414C97.1719 20.4941 95.7891 21.5195 93.8086 21.6543V23.8398H98.1562V24.6133H88.6172V23.8398H92.9062V21.6543C90.9375 21.5137 89.5547 20.4883 89.5547 18.9414C89.5547 17.3008 91.1543 16.2227 93.3633 16.2109ZM90.4453 18.9414C90.4395 20.1426 91.6758 20.9219 93.3633 20.9336C95.0508 20.9219 96.2812 20.1426 96.2812 18.9414C96.2812 17.7637 95.0508 16.9668 93.3633 16.9727C91.6758 16.9668 90.4395 17.7637 90.4453 18.9414ZM107.391 18.0391V18.8008H100.277V15.707H101.18V18.0391H107.391ZM98.9766 20.582V19.832H108.516V20.582H98.9766ZM100.172 22.2461V21.5195H107.285V23.957H101.121V25.0703H107.66V25.8086H100.195V23.2539H106.383V22.2461H100.172ZM118.852 21.0273V21.7773H109.359V21.0273H118.852ZM110.414 17.9688C110.414 16.6621 111.844 15.8945 114.105 15.9062C116.344 15.8945 117.779 16.6621 117.785 17.9688C117.779 19.2637 116.344 20.043 114.105 20.043C111.844 20.043 110.414 19.2637 110.414 17.9688ZM110.59 25.7266V22.6914H111.516V24.9531H117.797V25.7266H110.59ZM111.363 17.9688C111.357 18.7949 112.424 19.293 114.105 19.293C115.775 19.293 116.842 18.7949 116.848 17.9688C116.842 17.1543 115.775 16.6445 114.105 16.6445C112.424 16.6445 111.357 17.1543 111.363 17.9688Z" fill="#5B5B5B"/>
<path d="M67.3281 31.0156V51.9922H65.0781V47H60.4375V45.2891H65.0781V31.0156H67.3281ZM49.6797 41.9844C53.8516 41.9609 58.9961 41.9375 63.5547 41.4688L63.6719 43.1094C61.668 43.3789 59.6055 43.5547 57.5781 43.6602V51.3359H55.3516V43.7656C53.4648 43.8242 51.6484 43.8477 49.9844 43.8594L49.6797 41.9844ZM51.5078 39.7812V32.1406H61.8672V39.7812H51.5078ZM53.6875 38H59.6875V33.9219H53.6875V38ZM88.0234 44.4922V52.0156H85.7969V46.2734H73.7969V44.4922H88.0234ZM71.4766 42.0547V32.5391H81.2266V36.1953H85.7969V30.9922H88.0234V43.3672H85.7969V38H81.2266V42.0547H71.4766ZM73.6797 40.2734H79.0469V34.3438H73.6797V40.2734ZM100.82 31.3438C105.555 31.332 108.309 32.6094 108.32 34.9531C108.309 37.3086 105.555 38.5859 100.82 38.5859C96.0859 38.5859 93.3086 37.3086 93.3203 34.9531C93.3086 32.6094 96.0859 31.332 100.82 31.3438ZM91.2578 41.6562V39.875H110.406V41.6562H91.2578ZM93.5547 44.9375V43.2734H107.992V48.1953H95.7578V50.0703H108.578V51.7812H93.5781V46.5781H105.789V44.9375H93.5547ZM95.6406 34.9531C95.6289 36.2539 97.4805 36.9219 100.82 36.9219C104.184 36.9219 106.035 36.2539 106.023 34.9531C106.035 33.7109 104.184 32.9844 100.82 32.9844C97.4805 32.9844 95.6289 33.7109 95.6406 34.9531Z" fill="black"/>
<path d="M129.508 31.0156V46.4844H127.281V39.1953H122.922V37.3438H127.281V31.0156H129.508ZM112.305 42.3594C116.98 40.8477 120.156 38 120.613 34.4375H113.383V32.5859H123.062C123.039 38.0703 119.277 42.1953 113.242 44.1406L112.305 42.3594ZM115.984 51.5469V44.8906H118.234V49.7422H130.047V51.5469H115.984ZM150.766 30.9922V51.9922H148.633V41.1406H145.914V50.9141H143.875V31.4141H145.914V39.3125H148.633V30.9922H150.766ZM133.445 46.9531V33.5234H141.32V35.3281H135.672V45.0547C138.25 45.043 140.195 44.9258 142.445 44.4922L142.609 46.3203C140.09 46.8477 137.91 46.9297 134.852 46.9531H133.445Z" fill="url(#paint0_linear_1751_360)"/>
<mask id="mask0_1751_360" style="mask-type:alpha" maskUnits="userSpaceOnUse" x="0" y="1" width="44" height="55">
<rect y="1.74072" width="14.7686" height="53.1294" rx="7.38429" fill="#D9D9D9"/>
<path d="M27.608 5.38397C30.4271 2.41049 35.1005 2.30873 38.0463 5.1567C40.9922 8.00466 41.0949 12.7239 38.2758 15.6974L13.7665 41.549L3.09869 31.2356L27.608 5.38397Z" fill="#D9D9D9"/>
<path d="M41.7387 43.3057C44.0922 46.6528 43.3043 51.299 39.979 53.6832C36.6538 56.0674 32.0503 55.2868 29.6968 51.9397L16.856 33.6772L28.8979 25.0433L41.7387 43.3057Z" fill="#D9D9D9"/>
</mask>
<g mask="url(#mask0_1751_360)">
<g filter="url(#filter0_ii_1751_360)">
<rect x="-5.53821" y="-2.7959" width="54.4592" height="62.4504" fill="#39B46A"/>
</g>
<path d="M19.7523 30.6572C21.5527 28.3941 25.6527 22.9029 25.6527 19.8216C25.6527 16.0799 22.6408 13.0493 18.9222 13.0493C15.2037 13.0493 12.1918 16.0799 12.1918 19.8216C12.1918 22.9029 16.2917 28.3941 18.0922 30.6572C18.524 31.199 19.3261 31.199 19.7523 30.6572ZM26.1014 41.4364L34.2285 38.1631C34.7389 37.9599 35.0754 37.4577 35.0754 36.9046V21.6275C35.0754 20.6681 34.1163 20.0135 33.2301 20.369L26.724 22.9876C26.6959 23.0553 26.6679 23.1287 26.6399 23.1964C26.4772 23.5802 26.2977 23.9696 26.1014 24.359V41.4364ZM3.61602 23.6197C3.10563 23.8285 2.7691 24.3251 2.7691 24.8782V40.1609C2.7691 41.1203 3.7282 41.775 4.61438 41.4194L11.7431 38.5469V24.359C11.5468 23.9696 11.3673 23.5802 11.2046 23.1964C10.8905 22.4515 10.6213 21.6501 10.4867 20.8543L3.61041 23.6197H3.61602ZM24.3066 27.4404C23.1568 29.2068 21.9341 30.8039 21.1545 31.7859C20.0047 33.2306 17.8398 33.2306 16.69 31.7859C15.9104 30.8039 14.6877 29.2068 13.5379 27.4404V38.4114L24.3066 41.5097V27.4404Z" fill="white"/>
</g>
<path d="M22.777 19.2777C22.777 21.7088 19.2049 23.6766 19.0527 23.7578C19.0126 23.7796 18.9678 23.791 18.9223 23.791C18.8768 23.791 18.8319 23.7796 18.7919 23.7578C18.6397 23.6766 15.0676 21.7088 15.0676 19.2777C15.0682 18.7069 15.2932 18.1596 15.6933 17.7559C16.0933 17.3522 16.6357 17.1252 17.2014 17.1245C17.9121 17.1245 18.5344 17.4329 18.9223 17.9542C19.3102 17.4329 19.9324 17.1245 20.6432 17.1245C21.2089 17.1252 21.7513 17.3522 22.1513 17.7559C22.5514 18.1596 22.7764 18.7069 22.777 19.2777Z" fill="url(#paint1_linear_1751_360)"/>
<defs>
<filter id="filter0_ii_1751_360" x="-5.53821" y="-2.7959" width="54.4592" height="62.4502" filterUnits="userSpaceOnUse" color-interpolation-filters="sRGB">
<feFlood flood-opacity="0" result="BackgroundImageFix"/>
<feBlend mode="normal" in="SourceGraphic" in2="BackgroundImageFix" result="shape"/>
<feColorMatrix in="SourceAlpha" type="matrix" values="0 0 0 0 0 0 0 0 0 0 0 0 0 0 0 0 0 0 127 0" result="hardAlpha"/>
<feMorphology radius="5" operator="erode" in="SourceAlpha" result="effect1_innerShadow_1751_360"/>
<feOffset/>
<feGaussianBlur stdDeviation="15"/>
<feComposite in2="hardAlpha" operator="arithmetic" k2="-1" k3="1"/>
<feColorMatrix type="matrix" values="0 0 0 0 0 0 0 0 0 0 0 0 0 0 0 0 0 0 0.15 0"/>
<feBlend mode="normal" in2="shape" result="effect1_innerShadow_1751_360"/>
<feColorMatrix in="SourceAlpha" type="matrix" values="0 0 0 0 0 0 0 0 0 0 0 0 0 0 0 0 0 0 127 0" result="hardAlpha"/>
<feMorphology radius="5" operator="erode" in="SourceAlpha" result="effect2_innerShadow_1751_360"/>
<feOffset/>
<feGaussianBlur stdDeviation="10"/>
<feComposite in2="hardAlpha" operator="arithmetic" k2="-1" k3="1"/>
<feColorMatrix type="matrix" values="0 0 0 0 1 0 0 0 0 1 0 0 0 0 1 0 0 0 0.4 0"/>
<feBlend mode="normal" in2="effect1_innerShadow_1751_360" result="effect2_innerShadow_1751_360"/>
</filter>
<linearGradient id="paint0_linear_1751_360" x1="101" y1="27" x2="101" y2="56" gradientUnits="userSpaceOnUse">
<stop stop-color="#30A65F"/>
<stop offset="0.475" stop-color="#4AC57B"/>
<stop offset="0.985" stop-color="#26A95A"/>
</linearGradient>
<linearGradient id="paint1_linear_1751_360" x1="18.9223" y1="17.1245" x2="18.9223" y2="23.791" gradientUnits="userSpaceOnUse">
<stop stop-color="#30A65F"/>
<stop offset="0.475" stop-color="#4AC57B"/>
<stop offset="0.985" stop-color="#26A95A"/>
</linearGradient>
</defs>
</svg>
