<svg width="24" height="25" viewBox="0 0 24 25" fill="none" xmlns="http://www.w3.org/2000/svg">
<path d="M11.999 19.2828L5.73954 24.0492C5.51897 24.2009 5.29771 24.2677 5.07576 24.2498C4.85243 24.2333 4.6484 24.1706 4.46367 24.0617C4.27757 23.9514 4.13626 23.7894 4.03976 23.5757C3.94326 23.3606 3.94119 23.1311 4.03356 22.8871L6.42401 15.0334L0.478902 10.7425C0.250058 10.6006 0.103929 10.4179 0.040515 10.1946C-0.0228995 9.97124 -0.0118713 9.74997 0.0736003 9.53078C0.157693 9.31021 0.285902 9.13306 0.458224 8.99934C0.630545 8.86562 0.83871 8.79876 1.08272 8.79876H8.5477L10.9878 0.781653C11.0815 0.537645 11.2166 0.346022 11.3931 0.206786C11.5695 0.0689286 11.7715 0 11.999 0C12.2264 0 12.4284 0.0689286 12.6049 0.206786C12.7813 0.346022 12.9157 0.537645 13.0081 0.781653L15.4523 8.79876H22.9173C23.1613 8.79876 23.3695 8.86562 23.5418 8.99934C23.7141 9.13306 23.8423 9.31021 23.9264 9.53078C24.0119 9.75135 24.0229 9.97261 23.9595 10.1946C23.8961 10.4179 23.7499 10.6006 23.5211 10.7425L17.576 15.0334L19.9664 22.8871C20.0588 23.1311 20.0567 23.3606 19.9602 23.5757C19.8637 23.7908 19.7224 23.9527 19.5363 24.0617C19.3516 24.1706 19.1476 24.2333 18.9242 24.2498C18.7023 24.2677 18.481 24.2009 18.2605 24.0492L11.999 19.2828Z" fill="url(#paint0_linear_1751_823)"/>
<defs>
<linearGradient id="paint0_linear_1751_823" x1="12" y1="0" x2="12" y2="24.2527" gradientUnits="userSpaceOnUse">
<stop stop-color="#30A65F"/>
<stop offset="0.475" stop-color="#4AC57B"/>
<stop offset="0.985" stop-color="#26A95A"/>
</linearGradient>
</defs>
</svg>
